<svg width="367" height="7" viewBox="0 0 367 7" fill="none" xmlns="http://www.w3.org/2000/svg">
<path d="M366 6L361 1L356 6L351 1L346 6L341 1L336 6L331 1L326 6L321 1L316 6L311 1L306 6L301 1L296 6L291 1L286 6L281 1L276 6L271 1L266 6L261 1L256 6L251 1L246 6L241 1L236 6L231 1L226 6L221 1L216 6L211 1L206 6L201 1L196 6L191 1L186 6L181 1L176 6L171 1L166 6L161 1L156 6L151 1L146 6L141 1L136 6L131 1L126 6L121 1L116 6L111 1L106 6L101 1L96 6L91 1L86 6L81 1L76 6L71 1L66 6L61 1L56 6L51 1L46 6L41 1L36 6L31 1L26 6L21 1L16 6L11 1L6 6L1 1" stroke="#CCCCCC" stroke-miterlimit="2.3662" stroke-dasharray="1 1"/>
</svg>
