<svg width="16" height="16" viewBox="0 0 16 16" fill="none" xmlns="http://www.w3.org/2000/svg">
<path d="M11.2541 7.86426H13.966V9.49138H11.2541V7.86426Z" fill="#AE4B84"/>
<path d="M8.27117 7.86426H10.7119V9.49138H8.27117V7.86426Z" fill="#AE4B84"/>
<path d="M11.2541 10.0342H13.966V11.6613H11.2541V10.0342Z" fill="#AE4B84"/>
<path d="M8.27117 10.0342H10.7119V11.6613H8.27117V10.0342Z" fill="#AE4B84"/>
<path d="M8.27117 5.69531H10.7119V7.32244H8.27117V5.69531Z" fill="#AE4B84"/>
<path d="M5.28807 7.86426H7.72876V9.49138H5.28807V7.86426Z" fill="#AE4B84"/>
<path d="M2.0338 7.86426H4.74567V9.49138H2.0338V7.86426Z" fill="#AE4B84"/>
<path d="M5.28807 5.69531H7.72876V7.32244H5.28807V5.69531Z" fill="#AE4B84"/>
<path d="M8.27117 12.2031H10.7119V13.8302H8.27117V12.2031Z" fill="#AE4B84"/>
<path d="M2.0338 10.0342H4.74567V11.6613H2.0338V10.0342Z" fill="#AE4B84"/>
<path d="M5.28807 12.2031H7.72876V13.8302H5.28807V12.2031Z" fill="#AE4B84"/>
<path d="M2.0338 12.2031H4.74567V13.8302H2.0338V12.2031Z" fill="#AE4B84"/>
<path d="M11.2541 5.69531H13.966V7.32244H11.2541V5.69531Z" fill="#AE4B84"/>
<path d="M0.677944 1.08475H1.22032V0.271188C1.22032 0.121406 1.34173 0 1.49151 0C1.64129 0 1.76269 0.121406 1.76269 0.271188V1.08475H3.38982V0.271188C3.38982 0.121406 3.51123 0 3.66101 0C3.81079 0 3.93219 0.121406 3.93219 0.271188V1.08475H5.55932V0.271188C5.55932 0.121406 5.68072 0 5.83051 0C5.98029 0 6.10169 0.121406 6.10169 0.271188V1.08475H7.72882V0.271188C7.72879 0.121406 7.85019 0 7.99997 0C8.14976 0 8.27116 0.121406 8.27116 0.271188V1.08475H9.89829V0.271188C9.89829 0.121406 10.0197 0 10.1695 0C10.3193 0 10.4407 0.121406 10.4407 0.271188V1.08475H12.0678V0.271188C12.0678 0.121406 12.1892 0 12.339 0C12.4888 0 12.6102 0.121406 12.6102 0.271188V1.08475H14.2373V0.271188C14.2373 0.121406 14.3587 0 14.5084 0C14.6582 0 14.7796 0.121406 14.7796 0.271188V1.08475H15.322C15.6215 1.08475 15.8644 1.32759 15.8644 1.62713V3.25425H2.57626C2.42648 3.25425 2.30507 3.37566 2.30507 3.52544C2.30507 3.67522 2.42648 3.79662 2.57626 3.79662H15.8644V15.4577C15.8644 15.7572 15.6215 16 15.322 16H0.677944C0.378413 16 0.135569 15.7572 0.135569 15.4577V1.62713C0.135569 1.32756 0.378382 1.08475 0.677944 1.08475ZM14.3159 2.36203C14.4228 2.46691 14.5941 2.46691 14.701 2.36203C14.7698 2.29325 14.7967 2.19297 14.7715 2.099C14.7463 2.00503 14.6729 1.93163 14.5789 1.90647C14.485 1.88128 14.3847 1.90816 14.3159 1.97694C14.211 2.08387 14.211 2.25509 14.3159 2.36203ZM12.1464 2.36203C12.2528 2.46837 12.4252 2.46837 12.5315 2.36203C12.6378 2.25569 12.6378 2.08328 12.5315 1.97694C12.4627 1.90816 12.3624 1.88128 12.2685 1.90647C12.1745 1.93166 12.1011 2.00503 12.0759 2.099C12.0508 2.19297 12.0776 2.29325 12.1464 2.36203ZM9.97691 2.36203C10.0833 2.46837 10.2557 2.46837 10.362 2.36203C10.4683 2.25569 10.4683 2.08328 10.362 1.97694C10.2557 1.87059 10.0833 1.87059 9.97691 1.97694C9.8706 2.08328 9.8706 2.25569 9.97691 2.36203ZM7.80744 2.36203C7.91379 2.46837 8.08619 2.46837 8.19254 2.36203C8.29888 2.25569 8.29888 2.08328 8.19254 1.97694C8.12376 1.90816 8.02347 1.88128 7.92951 1.90647C7.83554 1.93166 7.76213 2.00503 7.73697 2.099C7.71179 2.19297 7.73863 2.29325 7.80744 2.36203ZM5.63794 2.36203C5.74429 2.46837 5.91669 2.46837 6.02304 2.36203C6.12938 2.25569 6.12938 2.08328 6.02304 1.97694C5.91669 1.87059 5.74429 1.87059 5.63794 1.97694C5.5316 2.08328 5.5316 2.25569 5.63794 2.36203ZM3.46844 2.36203C3.57479 2.46837 3.74719 2.46837 3.85354 2.36203C3.95988 2.25569 3.95988 2.08328 3.85354 1.97694C3.74719 1.87059 3.57479 1.87059 3.46844 1.97694C3.3621 2.08328 3.3621 2.25569 3.46844 2.36203ZM1.49151 13.8305C1.49151 14.13 1.73435 14.3729 2.03388 14.3729H13.9661C14.2656 14.3729 14.5084 14.13 14.5084 13.8305V5.69491C14.5084 5.39537 14.2656 5.15253 13.9661 5.15253H2.03385C1.73432 5.15253 1.49148 5.39537 1.49148 5.69491V13.8305H1.49151ZM1.29894 2.36203C1.40529 2.46837 1.57769 2.46837 1.68404 2.36203C1.79038 2.25569 1.79038 2.08328 1.68404 1.97694C1.57769 1.87059 1.40529 1.87059 1.29894 1.97694C1.1926 2.08328 1.19263 2.25569 1.29894 2.36203Z" fill="#AE4B84"/>
<path d="M11.2541 12.2031H13.966V13.8302H11.2541V12.2031Z" fill="#AE4B84"/>
<path d="M5.28807 10.0342H7.72876V11.6613H5.28807V10.0342Z" fill="#AE4B84"/>
<path d="M2.0338 5.69531H4.74567V7.32244H2.0338V5.69531Z" fill="#AE4B84"/>
</svg>
