<svg width="69" height="68" viewBox="0 0 69 68" fill="none" xmlns="http://www.w3.org/2000/svg">
<path d="M52.1105 0H16.0657C14.8144 0 13.8 1.01438 13.8 2.26567C13.8 3.51697 14.8144 4.53134 16.0657 4.53134H18.0224C19.6718 4.53134 21.009 5.86848 21.009 7.51791C21.009 9.16735 19.6718 10.5045 18.0224 10.5045H4.42836C1.98264 10.5045 0 12.4871 0 14.9328C0 17.3786 1.98265 19.3612 4.42836 19.3612H12.4612C14.2244 19.3612 15.6537 20.7905 15.6537 22.5537C15.6537 24.3169 14.2244 25.7463 12.4612 25.7463H3.81045C1.706 25.7463 0 27.4523 0 29.5567C0 31.6612 1.70599 33.3672 3.81045 33.3672H10.8134C14.5104 33.3672 17.5075 36.3642 17.5075 40.0612C17.5075 43.7582 14.5104 46.7552 10.8134 46.7552H5.56119C3.85488 46.7552 2.47164 48.1385 2.47164 49.8448V51.2866C2.47164 52.1966 3.20937 52.9343 4.1194 52.9343C5.02944 52.9343 5.76716 53.6721 5.76716 54.5821V55.6119C5.76716 57.0907 4.56836 58.2896 3.08955 58.2896H2.88358C1.29102 58.2896 0 59.5806 0 61.1731V62.9239C0 65.4834 2.07486 67.5582 4.63433 67.5582H62.203C65.1606 67.5582 67.5582 65.1606 67.5582 62.203V60.3493C67.5582 58.4154 65.9905 56.8478 64.0567 56.8478H62.5119C61.4313 56.8478 60.5552 55.9717 60.5552 54.891C60.5552 53.8104 61.4313 52.9343 62.5119 52.9343H65.0866C67.2479 52.9343 69 51.1822 69 49.0209C69 46.8596 67.2479 45.1075 65.0866 45.1075H59.7313C58.1388 45.1075 56.8478 43.8164 56.8478 42.2239C56.8478 40.6313 58.1388 39.3403 59.7313 39.3403H60.8642C62.5136 39.3403 63.8507 38.0032 63.8507 36.3537C63.8507 34.7043 62.5136 33.3672 60.8642 33.3672H59.1134C56.4971 33.3672 54.3761 31.2462 54.3761 28.6299V20.391C54.3761 17.7747 56.4971 15.6537 59.1134 15.6537H60.1433C62.1909 15.6537 63.8507 13.9938 63.8507 11.9463C63.8507 9.89869 62.1909 8.23881 60.1433 8.23881H49.4328C48.409 8.23881 47.5791 7.40886 47.5791 6.38507C47.5791 5.36129 48.409 4.53134 49.4328 4.53134H52.1105C53.3617 4.53134 54.3761 3.51697 54.3761 2.26567C54.3761 1.01438 53.3617 0 52.1105 0Z" fill="#DFFAFF"/>
<path d="M14.9432 56.4041H56.3975C61.368 56.4041 65.3975 52.3747 65.3975 47.4041V40.7247C65.3975 38.2103 64.5361 35.7719 62.9567 33.8154L53.3703 21.9397C51.6617 19.8231 49.0875 18.5928 46.3673 18.5928H10.9432C7.62953 18.5928 4.94324 21.2791 4.94324 24.5928V46.4041C4.94324 51.927 9.42039 56.4041 14.9432 56.4041Z" fill="#128C7E"/>
<path d="M19.342 25.5808C19.631 23.9901 21.9117 23.9901 22.2006 25.5808C22.3894 26.6199 23.5888 27.1167 24.457 26.5154C25.7862 25.595 27.3988 27.2076 26.4783 28.5368C25.8771 29.405 26.3739 30.6044 27.413 30.7931C29.0037 31.0821 29.0037 33.3628 27.413 33.6518C26.3739 33.8405 25.8771 35.0399 26.4783 35.9081C27.3988 37.2373 25.7862 38.8499 24.457 37.9295C23.5888 37.3282 22.3894 37.825 22.2006 38.8641C21.9117 40.4548 19.631 40.4548 19.342 38.8641C19.1533 37.825 17.9539 37.3282 17.0857 37.9295C15.7565 38.8499 14.1439 37.2373 15.0643 35.9081C15.6656 35.0399 15.1688 33.8405 14.1297 33.6518C12.539 33.3628 12.539 31.0821 14.1297 30.7931C15.1688 30.6044 15.6656 29.405 15.0643 28.5368C14.1439 27.2076 15.7565 25.595 17.0857 26.5154C17.9539 27.1167 19.1533 26.6199 19.342 25.5808Z" fill="#FFF2A2"/>
<circle cx="20.7712" cy="32.2224" r="1.75867" fill="#D7F8FF"/>
<path d="M60.3413 42.115C60.3413 43.6933 61.7192 44.9728 63.419 44.9728V39.2571C61.7192 39.2571 60.3413 40.5366 60.3413 42.115Z" fill="#FFF2A2"/>
<path d="M49.9461 20.3514H45.953C45.4007 20.3514 44.953 20.7992 44.953 21.3514V28.6191C44.953 33.0374 48.5347 36.6191 52.953 36.6191H60.5505C61.3725 36.6191 61.8435 35.6824 61.3531 35.0226L50.7487 20.7549C50.5601 20.5011 50.2624 20.3514 49.9461 20.3514Z" fill="#D7F8FF"/>
<circle cx="20.1118" cy="56.624" r="6.81484" fill="#707070"/>
<circle cx="51.7678" cy="56.624" r="6.81484" fill="#707070"/>
</svg>
