<svg width="69" height="68" viewBox="0 0 69 68" fill="none" xmlns="http://www.w3.org/2000/svg">
<path d="M52.2107 -6.10352e-05H16.3798C15.1359 -6.10352e-05 14.1276 1.00829 14.1276 2.25216C14.1276 3.49603 15.1359 4.50439 16.3798 4.50439H18.3249C19.9646 4.50439 21.2938 5.83359 21.2938 7.47323C21.2938 9.11288 19.9646 10.4421 18.3249 10.4421H4.81156C2.38036 10.4421 0.409485 12.413 0.409485 14.8442C0.409485 17.2754 2.38037 19.2462 4.81157 19.2462H12.7967C14.5495 19.2462 15.9703 20.6671 15.9703 22.4198C15.9703 24.1725 14.5494 25.5934 12.7967 25.5934H4.19732C2.10536 25.5934 0.409485 27.2893 0.409485 29.3812C0.409485 31.4732 2.10536 33.1691 4.19732 33.1691H11.1587C14.8338 33.1691 17.813 36.1483 17.813 39.8234C17.813 43.4985 14.8338 46.4777 11.1587 46.4777H5.93768C4.24149 46.4777 2.86646 47.8527 2.86646 49.5489V50.9821C2.86646 51.8868 3.59981 52.6201 4.50444 52.6201C5.40907 52.6201 6.14242 53.3535 6.14242 54.2581V55.2818C6.14242 56.7519 4.95073 57.9436 3.4807 57.9436H3.27595C1.69285 57.9436 0.409485 59.2269 0.409485 60.81V62.5504C0.409485 65.0947 2.47203 67.1572 5.01631 67.1572H62.2433C65.1834 67.1572 67.5668 64.7738 67.5668 61.8338V59.991C67.5668 58.0687 66.0084 56.5103 64.086 56.5103H62.5504C61.4762 56.5103 60.6053 55.6395 60.6053 54.5652C60.6053 53.491 61.4762 52.6201 62.5504 52.6201H65.1098C67.2583 52.6201 69 50.8784 69 48.7299C69 46.5814 67.2583 44.8397 65.1098 44.8397H59.7863C58.2032 44.8397 56.9199 43.5563 56.9199 41.9732C56.9199 40.3901 58.2032 39.1068 59.7863 39.1068H60.9125C62.5521 39.1068 63.8813 37.7776 63.8813 36.1379C63.8813 34.4983 62.5521 33.1691 60.9125 33.1691H59.1721C56.5713 33.1691 54.4629 31.0607 54.4629 28.4599V20.27C54.4629 17.6692 56.5713 15.5608 59.1721 15.5608H60.1958C62.2313 15.5608 63.8813 13.9107 63.8813 11.8753C63.8813 9.83989 62.2313 8.18985 60.1958 8.18985H49.549C48.5312 8.18985 47.7062 7.36483 47.7062 6.34712C47.7062 5.32941 48.5312 4.50439 49.549 4.50439H52.2107C53.4545 4.50439 54.4629 3.49603 54.4629 2.25216C54.4629 1.00829 53.4545 -6.10352e-05 52.2107 -6.10352e-05Z" fill="#DFFAFF"/>
<path d="M58.7626 16.3797H14.9466C14.9466 13.1038 11.0564 9.82782 9.82789 9.82782H3.27596C1.4667 9.82782 0 11.2945 0 13.1038C0 14.913 1.4667 16.3797 3.27597 16.3797H8.39466L14.9466 34.6023V45.6587C14.9466 50.4088 18.4273 52.6201 22.1128 53.6438H49.3442C51.1535 53.6438 52.6202 52.1771 52.6202 50.3679C52.6202 48.5586 51.1612 47.0919 49.3519 47.0919H22.7315C21.5934 47.0919 20.6795 46.1693 20.6795 45.0312V44.9421C20.6795 43.7547 21.6373 42.7922 22.8246 42.7922H47.7062C49.8356 42.7922 51.3234 40.7447 51.8012 39.721C54.4629 33.4421 59.9092 20.5976 60.4006 19.451C60.892 18.3044 59.7863 16.5845 58.7626 16.3797Z" fill="#128C7E"/>
<circle cx="23.9555" cy="58.3531" r="4.50445" fill="#707070"/>
<circle cx="44.8398" cy="58.3531" r="4.50445" fill="#707070"/>
</svg>
