<svg width="69" height="68" viewBox="0 0 69 68" fill="none" xmlns="http://www.w3.org/2000/svg">
<path d="M52.1105 0H16.0657C14.8144 0 13.8 1.01438 13.8 2.26567C13.8 3.51697 14.8144 4.53134 16.0657 4.53134H18.0224C19.6718 4.53134 21.009 5.86848 21.009 7.51791C21.009 9.16735 19.6718 10.5045 18.0224 10.5045H4.42836C1.98264 10.5045 0 12.4871 0 14.9328C0 17.3786 1.98265 19.3612 4.42836 19.3612H12.4612C14.2244 19.3612 15.6537 20.7905 15.6537 22.5537C15.6537 24.3169 14.2244 25.7463 12.4612 25.7463H3.81045C1.706 25.7463 0 27.4523 0 29.5567C0 31.6612 1.70599 33.3672 3.81045 33.3672H10.8134C14.5104 33.3672 17.5075 36.3642 17.5075 40.0612C17.5075 43.7582 14.5104 46.7552 10.8134 46.7552H5.56119C3.85488 46.7552 2.47164 48.1385 2.47164 49.8448V51.2866C2.47164 52.1966 3.20937 52.9343 4.1194 52.9343C5.02944 52.9343 5.76716 53.6721 5.76716 54.5821V55.6119C5.76716 57.0907 4.56836 58.2896 3.08955 58.2896H2.88358C1.29102 58.2896 0 59.5806 0 61.1731V62.9239C0 65.4834 2.07486 67.5582 4.63433 67.5582H62.203C65.1606 67.5582 67.5582 65.1606 67.5582 62.203V60.3493C67.5582 58.4154 65.9905 56.8478 64.0567 56.8478H62.5119C61.4313 56.8478 60.5552 55.9717 60.5552 54.891C60.5552 53.8104 61.4313 52.9343 62.5119 52.9343H65.0866C67.2479 52.9343 69 51.1822 69 49.0209C69 46.8596 67.2479 45.1075 65.0866 45.1075H59.7313C58.1388 45.1075 56.8478 43.8164 56.8478 42.2239C56.8478 40.6313 58.1388 39.3403 59.7313 39.3403H60.8642C62.5136 39.3403 63.8507 38.0032 63.8507 36.3537C63.8507 34.7043 62.5136 33.3672 60.8642 33.3672H59.1134C56.4971 33.3672 54.3761 31.2462 54.3761 28.6299V20.391C54.3761 17.7747 56.4971 15.6537 59.1134 15.6537H60.1433C62.1909 15.6537 63.8507 13.9938 63.8507 11.9463C63.8507 9.89869 62.1909 8.23881 60.1433 8.23881H49.4328C48.409 8.23881 47.5791 7.40886 47.5791 6.38507C47.5791 5.36129 48.409 4.53134 49.4328 4.53134H52.1105C53.3617 4.53134 54.3761 3.51697 54.3761 2.26567C54.3761 1.01438 53.3617 0 52.1105 0Z" fill="#DFFAFF"/>
<path d="M30.1021 12.691C32.3378 9.66107 36.8682 9.66107 39.1038 12.691C40.5246 14.6166 43.0128 15.425 45.294 14.7023C48.8837 13.5651 52.5489 16.2281 52.5766 19.9935C52.5942 22.3863 54.132 24.5029 56.4023 25.2591C59.9748 26.449 61.3748 30.7577 59.184 33.8203C57.7918 35.7665 57.7918 38.3828 59.184 40.329C61.3748 43.3916 59.9748 47.7002 56.4023 48.8902C54.132 49.6464 52.5942 51.763 52.5766 54.1558C52.5489 57.9212 48.8837 60.5841 45.294 59.4469C43.0128 58.7243 40.5246 59.5327 39.1038 61.4582C36.8682 64.4882 32.3378 64.4882 30.1021 61.4582C28.6813 59.5327 26.1931 58.7243 23.9119 59.4469C20.3223 60.5841 16.6571 57.9212 16.6294 54.1558C16.6117 51.763 15.0739 49.6464 12.8036 48.8902C9.23109 47.7002 7.83112 43.3916 10.0219 40.329C11.4142 38.3828 11.4142 35.7665 10.0219 33.8203C7.83112 30.7577 9.23109 26.449 12.8036 25.2591C15.0739 24.5029 16.6117 22.3863 16.6294 19.9935C16.6571 16.2281 20.3223 13.5651 23.9119 14.7023C26.1931 15.425 28.6813 14.6166 30.1021 12.691Z" fill="#128C7E"/>
<path d="M29.8544 45.2552L24.402 39.5916C23.6637 38.8247 23.6815 37.6061 24.4418 36.861C25.196 36.122 26.4028 36.122 27.157 36.861L30.2906 39.9318C30.7446 40.3767 31.4673 40.3889 31.9361 39.9595L44.2162 28.7105C45.12 27.8826 46.5331 27.9808 47.3138 28.9258C48.0397 29.8045 47.9501 31.0978 47.1101 31.8681L32.4241 45.3352C31.6878 46.0104 30.5473 45.9749 29.8544 45.2552Z" fill="white"/>
</svg>
